<?xml version="1.0" encoding="UTF-8"?>
<svg id="Layer_1" xmlns="http://www.w3.org/2000/svg" version="1.1" viewBox="0 0 48 48">
  <!-- Generator: Adobe Illustrator 30.4.0, SVG Export Plug-In . SVG Version: 2.1.4 Build 226)  -->
  <defs>
    <style>
      .st0 {
        fill: #ecdaf1;
      }
    </style>
  </defs>
  <g>
    <path class="st0" d="M33.9,24c0-5.5-4.5-9.9-9.9-9.9h0c-5.5,0-9.9,4.5-9.9,9.9s4.5,9.9,9.9,9.9,9.9-4.5,9.9-9.9ZM32.7,24c0,4.8-3.9,8.7-8.7,8.7-4.8,0-8.7-3.9-8.7-8.7s3.9-8.7,8.7-8.7,8.7,3.9,8.7,8.7Z"/>
    <path class="st0" d="M39.6,23.4h-1.3c-.3-7.4-6.3-13.4-13.7-13.7v-1.3c0-.3-.3-.6-.6-.6s-.6.3-.6.6v1.3c-7.4.3-13.4,6.3-13.7,13.7h-1.3c-.3,0-.6.3-.6.6,0,.3.3.6.6.6h1.3c.3,7.4,6.3,13.4,13.7,13.7v1.3c0,.3.3.6.6.6s.6-.3.6-.6v-1.3c7.4-.3,13.4-6.3,13.7-13.7h1.3c.3,0,.6-.3.6-.6s-.3-.6-.6-.6ZM24,35.6c-.3,0-.6.3-.6.6v.9c-6.8-.3-12.2-5.8-12.5-12.5h.9c.3,0,.6-.3.6-.6s-.3-.6-.6-.6h-.9c.3-6.8,5.8-12.2,12.5-12.5v.9c0,.3.3.6.6.6s.6-.3.6-.6v-.9c6.8.3,12.2,5.8,12.5,12.5h-.9c-.2,0-.3,0-.4.2s-.2.3-.2.4c0,.2,0,.3.2.4.1.1.3.2.4.2h.9c-.3,6.8-5.8,12.2-12.5,12.5v-.9c0-.3-.3-.6-.6-.6Z"/>
  </g>
  <path class="st0" d="M24,27.7c-2,0-3.7-1.6-3.7-3.7s1.6-3.7,3.7-3.7,3.7,1.6,3.7,3.7-1.6,3.7-3.7,3.7ZM24,21.3c-1.5,0-2.7,1.2-2.7,2.7s1.2,2.7,2.7,2.7,2.7-1.2,2.7-2.7-1.2-2.7-2.7-2.7Z"/>
</svg>