<?xml version="1.0" encoding="UTF-8"?>
<svg id="Capa_1" xmlns="http://www.w3.org/2000/svg" version="1.1" viewBox="0 0 48 48">
  <!-- Generator: Adobe Illustrator 30.4.0, SVG Export Plug-In . SVG Version: 2.1.4 Build 226)  -->
  <defs>
    <style>
      .st0 {
        fill: #ecdaf1;
        fill-rule: evenodd;
      }
    </style>
  </defs>
  <path class="st0" d="M24.3,24.6c2.1,0,3.8-1.7,3.8-3.8s-1.7-3.8-3.8-3.8-3.8,1.7-3.8,3.8,1.7,3.8,3.8,3.8ZM24.3,26.1c2.9,0,5.3-2.4,5.3-5.3s-2.4-5.3-5.3-5.3-5.3,2.4-5.3,5.3,2.4,5.3,5.3,5.3Z"/>
  <path class="st0" d="M22.2,8.4c1.3-.9,3-.9,4.3,0l1.9,1.3c.3.2.6.3.9.4l2.3.4c1.6.3,2.8,1.5,3,3l.4,2.3c0,.3.2.6.4.9l1.3,1.9c.9,1.3.9,3,0,4.3l-1.3,1.9c-.2.3-.3.6-.4.9l-.4,2.3c-.3,1.6-1.5,2.8-3,3l-2.3.4c-.3,0-.6.2-.9.4l-1.9,1.3c-1.3.9-3,.9-4.3,0l-1.9-1.3c-.3-.2-.6-.3-.9-.4l-2.3-.4c-1.6-.3-2.8-1.5-3-3l-.4-2.3c0-.3-.2-.6-.4-.9l-1.3-1.9c-.9-1.3-.9-3,0-4.3l1.3-1.9c.2-.3.3-.6.4-.9l.4-2.3c.3-1.6,1.5-2.8,3-3l2.3-.4c.3,0,.6-.2.9-.4l1.9-1.3ZM25.6,9.6c-.8-.5-1.8-.5-2.6,0l-1.9,1.3c-.5.3-1,.5-1.5.6l-2.3.4c-.9.2-1.7.9-1.8,1.8l-.4,2.3c0,.5-.3,1.1-.6,1.5l-1.3,1.9c-.5.8-.5,1.8,0,2.6l1.3,1.9c.3.5.5,1,.6,1.5l.4,2.3c.2.9.9,1.7,1.8,1.8l2.3.4c.5,0,1.1.3,1.5.6l1.9,1.3c.8.5,1.8.5,2.6,0l1.9-1.3c.5-.3,1-.5,1.5-.6l2.3-.4c.9-.2,1.7-.9,1.8-1.8l.4-2.3c0-.5.3-1.1.6-1.5l1.3-1.9c.5-.8.5-1.8,0-2.6l-1.3-1.9c-.3-.5-.5-1-.6-1.5l-.4-2.3c-.2-.9-.9-1.7-1.8-1.8l-2.3-.4c-.5,0-1.1-.3-1.5-.6l-1.9-1.3Z"/>
  <path class="st0" d="M34.1,25.1c.4-.1.8,0,1,.5l2.9,8.3c.6,1.6-.8,3.2-2.5,3l-3.1-.5c-.3,0-.5,0-.7.2l-2.1,2.3c-1.1,1.3-3.2.9-3.8-.7l-1.6-4.4c-.1-.4,0-.8.5-1,.4-.1.8,0,1,.5l1.6,4.4c.2.5.9.7,1.3.2l2.1-2.3c.5-.6,1.3-.8,2-.7l3.1.5c.6,0,1-.5.8-1l-2.9-8.3c-.1-.4,0-.8.5-1h0Z"/>
  <path class="st0" d="M14.5,25.1c-.4-.1-.8,0-1,.5l-2.9,8.3c-.6,1.6.8,3.2,2.5,3l3.1-.5c.3,0,.5,0,.7.2l2.1,2.3c1.1,1.3,3.2.9,3.8-.7l1.6-4.4c.1-.4,0-.8-.5-1-.4-.1-.8,0-1,.5l-1.6,4.4c-.2.5-.9.7-1.3.2l-2.1-2.3c-.5-.6-1.3-.8-2-.7l-3.1.5c-.6,0-1-.5-.8-1l2.9-8.3c.1-.4,0-.8-.5-1h0Z"/>
</svg>