<?xml version="1.0" encoding="UTF-8"?>
<svg id="Capa_1" xmlns="http://www.w3.org/2000/svg" version="1.1" viewBox="0 0 64 64">
  <!-- Generator: Adobe Illustrator 30.2.1, SVG Export Plug-In . SVG Version: 2.1.1 Build 1)  -->
  <defs>
    <style>
      .st0 {
        fill: #fff;
      }
    </style>
  </defs>
  <g id="More-2">
    <path class="st0" d="M15.6,22.3c0-1.1.9-2,2-2h28.8c1.1,0,2,.9,2,2s-.9,2-2,2h-28.8c-1.1,0-2-.9-2-2ZM46.4,30h-28.8c-1.1,0-2,.9-2,2s.9,2,2,2h28.8c1.1,0,2-.9,2-2s-.9-2-2-2ZM46.4,39.7h-28.8c-1.1,0-2,.9-2,2s.9,2,2,2h28.8c1.1,0,2-.9,2-2s-.9-2-2-2Z"/>
  </g>
</svg>